<?xml version="1.0" standalone="no"?>
<svg version="1.0" xmlns="http://www.w3.org/2000/svg"
 width="512.000000pt" height="512.000000pt" viewBox="0 0 512.000000 512.000000"
 preserveAspectRatio="xMidYMid meet">

<g transform="translate(0.000000,512.000000) scale(0.100000,-0.100000)"
fill="#000000" stroke="none">
<path d="M3745 5106 c-22 -7 -736 -306 -1587 -663 -1214 -510 -1557 -658
-1592 -687 -30 -24 -56 -59 -78 -104 -30 -60 -33 -75 -33 -152 1 -83 2 -89 78
-270 86 -205 111 -251 155 -293 l30 -29 -21 -46 -22 -47 0 -1280 0 -1280 28
-60 c34 -73 85 -128 152 -163 l50 -27 1750 -3 c1926 -2 1794 -7 1883 59 47 35
103 116 120 175 17 59 17 2539 0 2598 -16 55 -71 138 -113 171 -86 65 37 59
-1558 65 l-1447 5 1262 529 c695 291 1290 542 1323 558 74 36 128 87 163 153
23 44 27 62 27 145 l0 95 -85 204 c-95 227 -131 281 -224 328 -62 32 -195 42
-261 19z m207 -436 c76 -176 87 -216 67 -234 -15 -13 -360 -159 -363 -154 -2
2 -1 109 2 239 l4 236 82 36 c44 19 95 35 111 34 29 -2 33 -8 97 -157z m-492
-237 l0 -238 -296 -123 c-163 -68 -298 -121 -301 -119 -3 3 -2 111 2 239 l8
234 286 121 c157 67 289 121 294 122 4 1 7 -106 7 -236z m-797 -522 l-8 -52
-284 -120 c-157 -65 -288 -119 -293 -119 -10 0 -11 259 -2 386 l7 89 291 122
291 121 3 -187 c1 -103 -1 -211 -5 -240z m-790 -225 l-8 -159 -235 -98 c-129
-55 -261 -110 -292 -124 l-58 -24 0 238 0 238 298 125 297 125 3 -81 c1 -45
-1 -153 -5 -240z m-791 -251 l-7 -239 -78 -33 c-55 -23 -84 -30 -95 -24 -16 8
-163 341 -162 367 0 6 7 18 16 25 14 11 325 148 331 145 0 -1 -2 -109 -5 -241z
m216 -782 c-33 -76 -77 -176 -97 -223 l-37 -85 -102 -3 -102 -3 0 204 c0 207
3 227 40 240 8 3 92 6 187 6 l171 1 -60 -137z m912 129 c0 -5 -42 -105 -94
-223 l-94 -214 -322 -3 c-187 -1 -320 1 -318 7 1 5 45 106 97 225 l95 216 318
0 c175 0 318 -4 318 -8z m860 0 c0 -4 -42 -104 -94 -222 l-95 -215 -321 -3
c-274 -2 -321 0 -317 12 3 8 47 109 98 225 l93 211 318 0 c175 0 318 -3 318
-8z m860 2 c0 -4 -145 -340 -181 -416 l-12 -28 -320 0 c-300 0 -319 1 -312 18
3 9 47 110 97 225 l91 207 318 0 c176 0 319 -3 319 -6z m428 -10 c22 -15 22
-19 22 -225 l0 -209 -210 0 c-115 0 -210 3 -210 6 0 4 37 90 81 193 45 102 88
201 96 219 l13 32 93 0 c68 0 99 -4 115 -16z m-1799 -1395 l126 -347 125 347
126 346 107 3 107 3 0 -536 0 -535 -85 0 -85 0 -2 358 -3 357 -107 -290 -106
-290 -77 0 -78 0 -106 281 -106 282 -3 -349 -2 -349 -85 0 -85 0 0 535 0 536
106 -3 107 -3 126 -346z"/>
</g>
</svg>
