<?xml version="1.0" standalone="no"?>
<svg version="1.0" xmlns="http://www.w3.org/2000/svg"
 width="1200.000000pt" height="1800.000000pt" viewBox="0 0 1200.000000 1800.000000"
 preserveAspectRatio="xMidYMid meet">

<g transform="translate(0.000000,1800.000000) scale(0.100000,-0.100000)"
fill="#000000" stroke="none">
<path d="M901 17484 c-180 -48 -339 -208 -386 -389 -13 -53 -15 -912 -15
-8095 0 -7183 2 -8042 15 -8095 48 -183 207 -342 390 -390 53 -13 605 -15
5095 -15 4490 0 5042 2 5095 15 183 48 342 207 390 390 13 53 15 912 15 8095
0 7183 -2 8042 -15 8095 -48 183 -207 342 -390 390 -53 13 -604 15 -5100 14
-4368 0 -5047 -2 -5094 -15z m9760 -776 c57 -20 151 -78 197 -122 44 -42 109
-145 130 -205 17 -49 17 -14723 0 -14772 -21 -60 -86 -163 -130 -205 -46 -44
-140 -102 -197 -122 -49 -17 -9273 -17 -9322 0 -57 20 -151 78 -197 122 -44
42 -109 145 -130 205 -17 49 -17 14723 0 14772 19 57 78 151 122 197 39 42
137 104 201 129 44 17 9277 18 9326 1z"/>
<path d="M5750 12544 c-219 -19 -467 -60 -655 -110 -1321 -351 -2330 -1433
-2584 -2774 -48 -251 -65 -473 -58 -760 7 -272 25 -419 84 -685 231 -1045 951
-1951 1923 -2418 63 -30 139 -64 168 -76 28 -12 76 -31 105 -42 203 -84 522
-164 817 -206 195 -28 731 -25 932 4 778 116 1442 440 1992 973 524 507 871
1150 1015 1875 48 242 64 454 58 760 -9 397 -64 714 -186 1067 -334 965 -1051
1729 -1997 2127 -283 119 -558 192 -934 247 -100 15 -572 27 -680 18z m516
-479 c531 -51 1005 -216 1427 -498 122 -81 307 -224 307 -236 0 -8 -4323
-4331 -4331 -4331 -12 0 -156 185 -230 295 -220 330 -379 708 -454 1083 -95
474 -83 928 36 1392 124 480 365 925 698 1288 280 305 571 526 916 697 348
172 661 263 1050 305 205 22 381 24 581 5z m2170 -1189 c287 -367 493 -818
584 -1276 44 -225 55 -343 55 -605 0 -327 -29 -544 -110 -830 -148 -518 -404
-952 -789 -1339 -447 -448 -976 -730 -1596 -852 -241 -47 -591 -66 -826 -45
-319 29 -689 117 -909 216 -33 14 -74 33 -92 41 -17 8 -34 14 -37 14 -18 0
-300 158 -402 225 -113 74 -304 221 -304 234 0 8 4323 4331 4331 4331 3 0 46
-51 95 -114z"/>
</g>
</svg>
